<svg width="54" height="53" viewBox="0 0 54 53" fill="none" xmlns="http://www.w3.org/2000/svg">
<path d="M29.6609 43.3295H25.3393C25.1468 43.3295 24.9621 43.2538 24.8259 43.1191C24.6898 42.9843 24.6133 42.8015 24.6133 42.6109V7.90171C24.6133 7.14392 24.9174 6.41716 25.4588 5.88131C26.0002 5.34547 26.7345 5.04443 27.5001 5.04443C28.2657 5.04443 29 5.34547 29.5414 5.88131C30.0828 6.41716 30.3869 7.14392 30.3869 7.90171V42.6116C30.3867 42.8021 30.3101 42.9847 30.174 43.1193C30.0379 43.2539 29.8533 43.3295 29.6609 43.3295ZM26.0654 41.8923H28.9348V7.90171C28.9348 7.5251 28.7836 7.16392 28.5146 6.89761C28.2455 6.63131 27.8806 6.4817 27.5001 6.4817C27.1196 6.4817 26.7547 6.63131 26.4856 6.89761C26.2166 7.16392 26.0654 7.5251 26.0654 7.90171V41.8923Z" fill="#295C7A"/>
<path d="M10.0021 14.6787H7.50957C6.91819 14.6682 6.35462 14.4283 5.94015 14.0107C5.52568 13.593 5.29346 13.031 5.29346 12.4456C5.29346 11.8601 5.52568 11.2981 5.94015 10.8805C6.35462 10.4628 6.91819 10.2229 7.50957 10.2124H9.64855C9.84111 10.2124 10.0258 10.2881 10.1619 10.4229C10.2981 10.5577 10.3746 10.7404 10.3746 10.931C10.3746 11.1216 10.2981 11.3044 10.1619 11.4392C10.0258 11.574 9.84111 11.6497 9.64855 11.6497H7.50957C7.30049 11.6559 7.10208 11.7425 6.95641 11.891C6.81074 12.0396 6.72927 12.2385 6.72927 12.4456C6.72927 12.6526 6.81074 12.8515 6.95641 13.0001C7.10208 13.1486 7.30049 13.2352 7.50957 13.2414H10.0021C10.1947 13.2414 10.3794 13.3171 10.5155 13.4519C10.6517 13.5867 10.7282 13.7695 10.7282 13.9601C10.7282 14.1507 10.6517 14.3334 10.5155 14.4682C10.3794 14.603 10.1947 14.6787 10.0021 14.6787Z" fill="#295C7A"/>
<path d="M25.3394 14.6787H14.394C14.2015 14.6787 14.0168 14.603 13.8806 14.4682C13.7445 14.3334 13.668 14.1507 13.668 13.9601C13.668 13.7695 13.7445 13.5867 13.8806 13.4519C14.0168 13.3171 14.2015 13.2414 14.394 13.2414H24.6133V11.6497H14.7469C14.5543 11.6497 14.3697 11.574 14.2335 11.4392C14.0973 11.3044 14.0208 11.1216 14.0208 10.931C14.0208 10.7404 14.0973 10.5577 14.2335 10.4229C14.3697 10.2881 14.5543 10.2124 14.7469 10.2124H25.3394C25.5319 10.2124 25.7166 10.2881 25.8528 10.4229C25.9889 10.5577 26.0654 10.7404 26.0654 10.931V13.9601C26.0654 14.1507 25.9889 14.3334 25.8528 14.4682C25.7166 14.603 25.5319 14.6787 25.3394 14.6787Z" fill="#295C7A"/>
<path d="M40.4477 14.6787H29.6606C29.4681 14.6787 29.2834 14.603 29.1472 14.4682C29.0111 14.3334 28.9346 14.1507 28.9346 13.9601V10.931C28.9346 10.7404 29.0111 10.5577 29.1472 10.4229C29.2834 10.2881 29.4681 10.2124 29.6606 10.2124H40.0948C40.2874 10.2124 40.4721 10.2881 40.6082 10.4229C40.7444 10.5577 40.8209 10.7404 40.8209 10.931C40.8209 11.1216 40.7444 11.3044 40.6082 11.4392C40.4721 11.574 40.2874 11.6497 40.0948 11.6497H30.3867V13.2414H40.4477C40.6403 13.2414 40.8249 13.3171 40.9611 13.4519C41.0973 13.5867 41.1738 13.7695 41.1738 13.9601C41.1738 14.1507 41.0973 14.3334 40.9611 14.4682C40.8249 14.603 40.6403 14.6787 40.4477 14.6787Z" fill="#295C7A"/>
<path d="M47.4833 14.6787H44.998C44.8055 14.6787 44.6208 14.603 44.4846 14.4682C44.3485 14.3334 44.272 14.1507 44.272 13.9601C44.272 13.7695 44.3485 13.5867 44.4846 13.4519C44.6208 13.3171 44.8055 13.2414 44.998 13.2414H47.4833C47.6924 13.2352 47.8908 13.1486 48.0365 13.0001C48.1822 12.8515 48.2636 12.6526 48.2636 12.4456C48.2636 12.2385 48.1822 12.0396 48.0365 11.891C47.8908 11.7425 47.6924 11.6559 47.4833 11.6497H45.356C45.1634 11.6497 44.9787 11.574 44.8426 11.4392C44.7064 11.3044 44.6299 11.1216 44.6299 10.931C44.6299 10.7404 44.7064 10.5577 44.8426 10.4229C44.9787 10.2881 45.1634 10.2124 45.356 10.2124H47.4833C48.0747 10.2229 48.6383 10.4628 49.0528 10.8805C49.4672 11.2981 49.6995 11.8601 49.6995 12.4456C49.6995 13.031 49.4672 13.593 49.0528 14.0107C48.6383 14.4283 48.0747 14.6682 47.4833 14.6787Z" fill="#295C7A"/>
<path d="M36.6954 47.9546H18.3043C18.1941 47.9546 18.0853 47.9297 17.9863 47.8818C17.8872 47.834 17.8005 47.7645 17.7326 47.6785C17.6648 47.5926 17.6175 47.4925 17.5946 47.3858C17.5716 47.2791 17.5735 47.1687 17.6 47.0628C17.8994 45.6416 18.6703 44.3603 19.7902 43.4227C20.9101 42.4852 22.3146 41.9452 23.7802 41.8887H31.2194C32.6851 41.9452 34.0896 42.4852 35.2095 43.4227C36.3293 44.3603 37.1003 45.6416 37.3997 47.0628C37.4262 47.1687 37.4281 47.2791 37.4051 47.3858C37.3821 47.4925 37.3349 47.5926 37.267 47.6785C37.1992 47.7645 37.1124 47.834 37.0134 47.8818C36.9143 47.9297 36.8056 47.9546 36.6954 47.9546ZM19.3084 46.5174H35.6912C35.3456 45.6094 34.7369 44.8225 33.9415 44.2554C33.146 43.6883 32.1991 43.3663 31.2194 43.3295H23.7802C22.8006 43.3663 21.8537 43.6883 21.0582 44.2554C20.2627 44.8225 19.654 45.6094 19.3084 46.5174Z" fill="#295C7A"/>
<path d="M38.6618 47.9548H16.3384C16.1458 47.9548 15.9611 47.8791 15.825 47.7444C15.6888 47.6096 15.6123 47.4268 15.6123 47.2362C15.6123 47.0456 15.6888 46.8628 15.825 46.7281C15.9611 46.5933 16.1458 46.5176 16.3384 46.5176H38.6618C38.8543 46.5176 39.039 46.5933 39.1752 46.7281C39.3113 46.8628 39.3878 47.0456 39.3878 47.2362C39.3878 47.4268 39.3113 47.6096 39.1752 47.7444C39.039 47.8791 38.8543 47.9548 38.6618 47.9548Z" fill="#295C7A"/>
<path d="M52.186 32.6973H33.4238C33.3023 32.6974 33.1827 32.6673 33.076 32.6098C32.9692 32.5522 32.8788 32.469 32.813 32.3679C32.7471 32.2668 32.708 32.1509 32.6992 32.0309C32.6904 31.911 32.7121 31.7907 32.7624 31.6812L40.7345 14.309C40.7738 14.2228 40.8299 14.1452 40.8995 14.0805C40.9691 14.0157 41.051 13.9653 41.1404 13.9319C41.2297 13.8986 41.3249 13.883 41.4203 13.8861C41.5158 13.8892 41.6097 13.911 41.6967 13.9501C41.7836 13.9891 41.862 14.0448 41.9271 14.1139C41.9923 14.183 42.0431 14.2642 42.0765 14.3527C42.11 14.4413 42.1254 14.5355 42.122 14.63C42.1186 14.7245 42.0964 14.8174 42.0567 14.9033L34.5507 31.2601H51.0562L43.5567 14.9033C43.5174 14.8173 43.4955 14.7245 43.4923 14.6302C43.4892 14.5359 43.5049 14.4418 43.5384 14.3535C43.572 14.2651 43.6228 14.1842 43.688 14.1153C43.7532 14.0464 43.8315 13.9908 43.9183 13.9519C44.0052 13.9129 44.0989 13.8912 44.1943 13.8881C44.2896 13.885 44.3846 13.9005 44.4739 13.9337C44.5631 13.967 44.6449 14.0173 44.7145 14.0818C44.7841 14.1463 44.8402 14.2238 44.8796 14.3097L52.8438 31.6819C52.8938 31.7911 52.9154 31.911 52.9067 32.0306C52.898 32.1501 52.8591 32.2657 52.7937 32.3666C52.7283 32.4675 52.6385 32.5507 52.5323 32.6085C52.4262 32.6662 52.3071 32.6968 52.186 32.6973Z" fill="#295C7A"/>
<path d="M42.8793 41.8635H42.7282C36.9147 41.8635 32.6948 37.7069 32.6948 31.9794C32.6948 31.7888 32.7713 31.606 32.9075 31.4712C33.0436 31.3365 33.2283 31.2607 33.4209 31.2607H52.1859C52.3784 31.2607 52.5631 31.3365 52.6993 31.4712C52.8354 31.606 52.9119 31.7888 52.9119 31.9794C52.9119 37.7105 48.6921 41.8635 42.8793 41.8635ZM34.1724 32.698C34.4962 37.2843 37.9224 40.4262 42.7282 40.4262H42.8793C47.6843 40.4262 51.1113 37.2843 51.4344 32.698H34.1724Z" fill="#295C7A"/>
<path d="M42.8039 15.7033C42.0979 15.7034 41.4077 15.4963 40.8206 15.1082C40.2336 14.7201 39.776 14.1683 39.5057 13.5228C39.2355 12.8772 39.1647 12.1668 39.3024 11.4815C39.4401 10.7961 39.7801 10.1665 40.2793 9.67243C40.7785 9.17831 41.4146 8.84183 42.107 8.70554C42.7995 8.56925 43.5172 8.63927 44.1694 8.90675C44.8217 9.17423 45.3791 9.62715 45.7712 10.2082C46.1634 10.7893 46.3726 11.4724 46.3725 12.1712C46.3713 13.1076 45.995 14.0054 45.326 14.6675C44.657 15.3296 43.75 15.7021 42.8039 15.7033ZM42.8039 10.0757C42.3851 10.0755 41.9757 10.1983 41.6275 10.4285C41.2792 10.6587 41.0077 10.9859 40.8474 11.3688C40.687 11.7517 40.645 12.173 40.7266 12.5796C40.8082 12.9861 41.0098 13.3596 41.3059 13.6527C41.6019 13.9459 41.9792 14.1455 42.3899 14.2264C42.8006 14.3073 43.2263 14.2659 43.6132 14.1073C44.0001 13.9487 44.3308 13.6801 44.5635 13.3355C44.7962 12.9909 44.9204 12.5857 44.9204 12.1712C44.9198 11.6157 44.6966 11.0832 44.2999 10.6903C43.9031 10.2975 43.3651 10.0764 42.8039 10.0757Z" fill="#295C7A"/>
<path d="M21.5751 32.6974H2.81375C2.69227 32.6974 2.57274 32.6671 2.4661 32.6095C2.35947 32.5519 2.26914 32.4688 2.2034 32.3677C2.13766 32.2666 2.0986 32.1507 2.0898 32.0308C2.081 31.9109 2.10274 31.7907 2.15303 31.6812L10.1266 14.3091C10.2062 14.1354 10.3523 14.0002 10.5326 13.9332C10.713 13.8661 10.9129 13.8727 11.0883 13.9515C11.2637 14.0303 11.4003 14.1749 11.4681 14.3534C11.5358 14.5319 11.5291 14.7297 11.4495 14.9034L3.9435 31.2601H20.449L12.9495 14.9034C12.9078 14.8171 12.8839 14.7235 12.8793 14.628C12.8746 14.5325 12.8892 14.437 12.9222 14.3472C12.9553 14.2574 13.0062 14.175 13.0718 14.1048C13.1374 14.0347 13.2166 13.9782 13.3045 13.9387C13.3925 13.8992 13.4876 13.8775 13.5841 13.8748C13.6807 13.8721 13.7768 13.8885 13.8669 13.9231C13.957 13.9577 14.0392 14.0097 14.1087 14.0761C14.1782 14.1424 14.2336 14.2219 14.2717 14.3098L22.2366 31.682C22.2867 31.7914 22.3083 31.9116 22.2994 32.0315C22.2905 32.1514 22.2514 32.2671 22.1855 32.3682C22.1197 32.4692 22.0294 32.5523 21.9227 32.6098C21.8161 32.6673 21.6966 32.6974 21.5751 32.6974Z" fill="#295C7A"/>
<path d="M12.2716 41.8635H12.1206C6.30775 41.8635 2.08789 37.7105 2.08789 31.9794C2.08789 31.7888 2.16439 31.606 2.30055 31.4712C2.43671 31.3365 2.62139 31.2607 2.81395 31.2607H21.579C21.7715 31.2607 21.9562 31.3365 22.0924 31.4712C22.2285 31.606 22.305 31.7888 22.305 31.9794C22.305 37.7105 18.0852 41.8635 12.2716 41.8635ZM3.56542 32.698C3.88852 37.2843 7.31552 40.4262 12.1206 40.4262H12.2716C17.0774 40.4262 20.5037 37.2843 20.8275 32.698H3.56542Z" fill="#295C7A"/>
<path d="M12.1963 15.7033C11.4903 15.7033 10.8002 15.4961 10.2132 15.1078C9.6262 14.7196 9.16871 14.1678 8.89858 13.5223C8.62845 12.8767 8.55781 12.1663 8.69559 11.481C8.83337 10.7957 9.17339 10.1662 9.67264 9.67217C10.1719 9.17813 10.8079 8.84172 11.5004 8.70549C12.1928 8.56926 12.9105 8.63932 13.5627 8.90682C14.2149 9.17432 14.7723 9.62724 15.1644 10.2083C15.5565 10.7894 15.7657 11.4725 15.7656 12.1712C15.7644 13.1077 15.388 14.0056 14.7188 14.6678C14.0497 15.3299 13.1425 15.7023 12.1963 15.7033ZM12.1963 10.0757C11.7775 10.0757 11.3682 10.1986 11.02 10.4288C10.6718 10.6591 10.4005 10.9864 10.2402 11.3693C10.08 11.7522 10.0381 12.1735 10.1198 12.58C10.2014 12.9865 10.4031 13.3599 10.6992 13.653C10.9953 13.946 11.3725 14.1456 11.7832 14.2265C12.1939 14.3073 12.6196 14.2658 13.0065 14.1072C13.3933 13.9486 13.724 13.68 13.9566 13.3354C14.1893 12.9908 14.3135 12.5857 14.3135 12.1712C14.3129 11.6156 14.0896 11.0829 13.6927 10.6901C13.2958 10.2972 12.7576 10.0762 12.1963 10.0757Z" fill="#295C7A"/>
</svg>
